<svg id="Ebene_1" data-name="Ebene 1" xmlns="http://www.w3.org/2000/svg" viewBox="0 0 129 129.92994"><defs><style>.cls-1{fill:#fff;}</style></defs><title>200721-U-UDJA</title><path class="cls-1" d="M101.165,8.44051H45.861A18.43485,18.43485,0,0,0,27.42367,26.88082H44.008V80.44416c.34513,4.08924,6.30119,8.562,18.62289,9.34746,10.08986.63488,19.57856-3.14763,21.97144-8.80148V26.93294c2.11038.19643,13.93984,3.25793,16.164,14.7253a14.38662,14.38662,0,0,1,.32209,2.01552v.03073c.04607.51536.07354,1.043.07354,1.61359v55.3058H84.57766V92.58946c-2.66285,3.718-7.41187,7.24594-11.51018,8.03442H45.85478c-11.16667-.57369-18.15659-8.04071-18.43888-18.44052V26.88082a18.43421,18.43421,0,0,0-18.428,18.43726v55.3058a18.43918,18.43918,0,0,0,18.43425,18.4403H82.73075a18.439,18.439,0,0,0,18.43749-18.4403,18.43366,18.43366,0,0,0,18.434-18.43729V26.88082A18.43678,18.43678,0,0,0,101.165,8.44051Z"/></svg>